<svg xmlns="http://www.w3.org/2000/svg" width="28" height="28" viewBox="0 0 28 28">
    <g fill="none" fill-rule="evenodd" transform="translate(2 1.692)">
        <circle cx="12" cy="13.095" r="12" fill="#F7E800"/>
        <g fill="#010002" fill-rule="nonzero">
            <path d="M22 2.232h-3.25V.744A.746.746 0 0 0 18 0a.746.746 0 0 0-.75.744v1.488h-4.5V.744A.747.747 0 0 0 12 0a.747.747 0 0 0-.75.744v1.488h-4.5V.744A.747.747 0 0 0 6 0a.747.747 0 0 0-.75.744v1.488H2c-1.105 0-2 .888-2 1.984v17.61c0 1.095.895 1.984 2 1.984h20c1.105 0 2-.889 2-1.985V4.215a1.991 1.991 0 0 0-2-1.983zm.5 19.593a.498.498 0 0 1-.5.496H2a.499.499 0 0 1-.5-.496V4.215c0-.272.224-.495.5-.495h3.25v1.488c0 .412.336.744.75.744s.75-.332.75-.744V3.72h4.5v1.488c0 .412.336.744.75.744s.75-.332.75-.744V3.72h4.5v1.488c0 .412.335.744.75.744s.75-.332.75-.744V3.72H22c.276 0 .5.223.5.496v17.61z"/>
            <path d="M5.25 8.929h3v2.232h-3zM5.25 12.649h3v2.232h-3zM5.25 16.369h3v2.232h-3zM10.5 16.369h3v2.232h-3zM10.5 12.649h3v2.232h-3zM10.5 8.929h3v2.232h-3zM15.75 16.369h3v2.232h-3zM15.75 12.649h3v2.232h-3zM15.75 8.929h3v2.232h-3z"/>
        </g>
    </g>
</svg>
