<?xml version="1.0" encoding="UTF-8"?>
<svg width="148px" height="191px" viewBox="0 0 148 191" version="1.1" xmlns="http://www.w3.org/2000/svg" xmlns:xlink="http://www.w3.org/1999/xlink">
    <!-- Generator: Sketch 55.1 (78136) - https://sketchapp.com -->
    <title>Group</title>
    <desc>Created with Sketch.</desc>
    <g id="Page-1" stroke="none" stroke-width="1" fill="none" fill-rule="evenodd">
        <g id="Group" transform="translate(0.055324, 0.054587)">
            <path d="M70.544676,23.7259615 C68.244676,20.5259615 68.244676,3.72596154 70.544676,1.52596154 C72.844676,-0.774038462 75.644676,-0.474038462 77.544676,2.42596154 C79.944676,6.12596154 79.244676,22.5259615 76.544676,24.5259615 C73.844676,26.5259615 72.344676,26.3259615 70.544676,23.7259615 Z" id="Path" fill="#000000" fill-rule="nonzero" transform="translate(73.914678, 12.935687) scale(-1, 1) rotate(-180.000000) translate(-73.914678, -12.935687) "></path>
            <path d="M1.14467599,44.1319373 C-1.15532401,41.8319373 -0.0553240145,38.0319373 5.04467599,31.1319373 C10.844676,23.4319373 12.444676,22.2319373 15.744676,23.4319373 C19.344676,24.8319373 18.544676,28.7319373 12.744676,36.7319373 C9.94467599,40.6319373 7.14467599,44.1319373 6.54467599,44.5319373 C4.94467599,45.6319373 2.44467599,45.4319373 1.14467599,44.1319373 Z" id="Path" fill="#000000" fill-rule="nonzero" transform="translate(8.957159, 34.138675) scale(-1, 1) rotate(-180.000000) translate(-8.957159, -34.138675) "></path>
            <path d="M141.344676,44.6530876 C138.644676,42.8530876 129.944676,29.4530876 129.944676,27.0530876 C129.944676,23.8530876 133.044676,21.9530876 135.844676,23.4530876 C138.744676,24.9530876 147.944676,38.1530876 147.944676,40.7530876 C147.944676,44.5530876 144.344676,46.7530876 141.344676,44.6530876 Z" id="Path" fill="#000000" fill-rule="nonzero" transform="translate(138.944676, 34.199250) scale(-1, 1) rotate(-180.000000) translate(-138.944676, -34.199250) "></path>
            <path d="M11.944676,96.3859257 C4.44467599,92.4859257 0.844675985,86.9859257 0.244675985,78.6859257 C-0.455324015,70.9859257 1.04467599,66.1859257 5.44467599,61.5859257 C8.04467599,58.7859257 9.44467599,58.0859257 12.544676,58.0859257 C17.844676,58.1859257 23.444676,60.8859257 29.744676,66.5859257 C38.944676,74.8859257 43.144676,85.0859257 39.944676,91.1859257 C37.844676,94.9859257 30.944676,98.3859257 23.944676,98.7859257 C18.244676,99.1859257 16.844676,98.9859257 11.944676,96.3859257 Z" id="Path" fill="#000000" fill-rule="nonzero" transform="translate(20.544247, 78.515669) scale(-1, 1) rotate(-180.000000) translate(-20.544247, -78.515669) "></path>
            <path d="M30.944676,87.3081966 C32.744676,85.5081966 32.744676,85.2081966 31.344676,82.2081966 C29.244676,77.9081966 18.844676,68.2081966 15.444676,67.3081966 C12.144676,66.5081966 10.044676,68.4081966 9.04467599,73.0081966 C7.64467599,79.5081966 10.944676,86.6081966 16.444676,89.0081966 C19.844676,90.5081966 28.844676,89.5081966 30.944676,87.3081966 Z" id="Path" fill="#79FFFF" fill-rule="nonzero" transform="translate(20.536246, 78.426805) scale(-1, 1) rotate(-180.000000) translate(-20.536246, -78.426805) "></path>
            <path d="M115.344676,96.6132672 C109.144676,93.7132672 106.944676,90.8132672 106.944676,85.7132672 C106.944676,80.5132672 109.244676,75.9132672 115.244676,69.3132672 C124.644676,59.1132672 135.244676,55.3132672 141.244676,60.0132672 C145.144676,63.1132672 147.944676,69.8132672 147.944676,76.1132672 C147.844676,93.2132672 130.944676,103.913267 115.344676,96.6132672 Z" id="Path" fill="#000000" fill-rule="nonzero" transform="translate(127.444676, 78.479340) scale(-1, 1) rotate(-180.000000) translate(-127.444676, -78.479340) "></path>
            <path d="M132.044676,89.484418 C138.644676,86.084418 141.244676,75.184418 136.844676,69.584418 L134.844676,66.984418 L130.744676,69.084418 C122.744676,73.184418 113.744676,84.784418 116.244676,87.784418 C118.944676,91.184418 127.144676,91.984418 132.044676,89.484418 Z" id="Path" fill="#79FFFF" fill-rule="nonzero" transform="translate(127.421203, 78.964915) scale(-1, 1) rotate(-180.000000) translate(-127.421203, -78.964915) "></path>
            <path d="M65.444676,189.433864 C41.644676,186.133864 21.244676,167.633864 15.844676,144.433864 C13.744676,135.033864 14.344676,122.133864 17.444676,112.733864 C18.944676,108.233864 21.144676,103.033864 22.444676,101.233864 L24.744676,97.9338638 L20.044676,88.9338638 C14.544676,78.1338638 13.944676,76.4338638 15.144676,74.2338638 C16.444676,71.6338638 19.844676,72.0338638 33.044676,76.0338638 L44.744676,79.5338638 L48.644676,77.5338638 C62.144676,70.7338638 85.644676,70.6338638 99.044676,77.5338638 L103.144676,79.5338638 L114.844676,76.0338638 C128.644676,71.8338638 131.444676,71.6338638 133.044676,74.6338638 C134.044676,76.4338638 133.444676,78.1338638 128.944676,86.8338638 L123.644676,96.9338638 L127.144676,104.433864 C131.744676,114.033864 133.344676,120.933864 133.344676,130.933864 C133.344676,147.433864 127.744676,160.633864 115.944676,172.433864 C102.544676,185.833864 84.344676,191.933864 65.444676,189.433864 Z" id="Path" fill="#000000" fill-rule="nonzero" transform="translate(74.033738, 131.189638) scale(-1, 1) rotate(-180.000000) translate(-74.033738, -131.189638) "></path>
            <path d="M83.9186529,180.127152 C94.4186529,177.827152 101.418653,174.027152 109.318653,166.127152 C121.318653,154.127152 126.318653,139.627152 123.818653,123.727152 C119.618653,96.3271524 93.7186529,77.3271524 66.5186529,81.5271524 C38.5186529,85.7271524 18.7186529,112.527152 23.7186529,139.427152 C27.4186529,159.927152 42.6186529,175.627152 63.0186529,180.027152 C71.1186529,181.827152 75.8186529,181.827152 83.9186529,180.127152 Z" id="Path" fill="#F6E702" fill-rule="nonzero" transform="translate(73.695332, 131.167666) scale(-1, 1) rotate(-180.000000) translate(-73.695332, -131.167666) "></path>
            <path d="M25.4576349,175.118886 C26.9576349,175.118886 28.4576349,178.118886 29.9576349,184.118886 L20.9576349,184.118886 C22.4576349,178.118886 23.9576349,175.118886 25.4576349,175.118886 Z" id="Triangle" fill="#79FFFF" transform="translate(25.457635, 179.618886) rotate(-131.000000) translate(-25.457635, -179.618886) "></path>
            <path d="M115.263386,182.246137 C114.285696,181.114073 115.557413,178.013831 119.078537,172.945413 L124.944676,179.737799 C119.468172,182.542089 116.241076,183.378201 115.263386,182.246137 Z" id="Triangle-Copy" fill="#79FFFF" transform="translate(119.944676, 177.839954) scale(-1, 1) translate(-119.944676, -177.839954) "></path>
            <text id="HURRY" font-family="Montserrat-Bold, Montserrat" font-size="18" font-weight="bold" fill="#000000">
                <tspan x="40.768676" y="136.945413">HURRY</tspan>
            </text>
        </g>
    </g>
</svg>